<svg width="30" height="30" viewBox="0 0 30 30" fill="none" xmlns="http://www.w3.org/2000/svg">
<path d="M21 9.47363C23.3869 9.47363 25.6761 10.4718 27.364 12.2484C29.0518 14.0251 30 16.4347 30 18.9473V29.9999H24V18.9473C24 18.1098 23.6839 17.3066 23.1213 16.7143C22.5587 16.1221 21.7956 15.7894 21 15.7894C20.2044 15.7894 19.4413 16.1221 18.8787 16.7143C18.3161 17.3066 18 18.1098 18 18.9473V29.9999H12V18.9473C12 16.4347 12.9482 14.0251 14.636 12.2484C16.3239 10.4718 18.6131 9.47363 21 9.47363Z" fill="#757575"/>
<path d="M6 11.0527H0V30.0001H6V11.0527Z" fill="#757575"/>
<path d="M3 6.31579C4.65685 6.31579 6 4.90195 6 3.15789C6 1.41384 4.65685 0 3 0C1.34315 0 0 1.41384 0 3.15789C0 4.90195 1.34315 6.31579 3 6.31579Z" fill="#757575"/>
</svg>
