<svg width="34" height="34" viewBox="0 0 34 34" fill="none" xmlns="http://www.w3.org/2000/svg">
<path d="M24.5 2H9.5C5.35786 2 2 5.35786 2 9.5V24.5C2 28.6421 5.35786 32 9.5 32H24.5C28.6421 32 32 28.6421 32 24.5V9.5C32 5.35786 28.6421 2 24.5 2Z" stroke="#757575" stroke-width="3" stroke-linecap="round" stroke-linejoin="round"/>
<path d="M22.9996 16.0545C23.1847 17.3028 22.9714 18.5778 22.3902 19.698C21.8089 20.8182 20.8893 21.7266 19.762 22.294C18.6347 22.8614 17.3572 23.0589 16.1112 22.8584C14.8652 22.6579 13.7142 22.0696 12.8218 21.1772C11.9294 20.2848 11.3412 19.1338 11.1407 17.8878C10.9402 16.6418 11.1377 15.3643 11.7051 14.237C12.2724 13.1098 13.1808 12.1901 14.301 11.6088C15.4212 11.0276 16.6962 10.8144 17.9446 10.9995C19.2179 11.1883 20.3968 11.7817 21.3071 12.6919C22.2174 13.6022 22.8107 14.7811 22.9996 16.0545Z" stroke="#757575" stroke-width="3" stroke-linecap="round" stroke-linejoin="round"/>
<path d="M25.25 8.75H25.265" stroke="#757575" stroke-width="3" stroke-linecap="round" stroke-linejoin="round"/>
</svg>
