<svg width="77" height="37" viewBox="0 0 77 37" fill="none" xmlns="http://www.w3.org/2000/svg">
<path d="M19.4674 7.95264L25.4887 18.3818H13.4461L19.4674 7.95264Z" fill="#08546C"/>
<path d="M9.73402 20.4678L15.7553 30.8969H3.71274L9.73402 20.4678Z" fill="#08546C"/>
<path d="M34.9943 7.05067L28.8844 17.4282L22.9522 6.94808L34.9943 7.05067Z" fill="#08546C"/>
<path d="M34.997 30.5579L22.9553 30.7013L28.8519 20.2012L34.997 30.5579Z" fill="#08546C"/>
<path d="M13.2402 19.5184L25.2826 19.5793L19.2086 29.9779L13.2402 19.5184Z" fill="#08546C"/>
<path d="M3.50682 7.00372L15.5492 7.06467L9.47523 17.4632L3.50682 7.00372Z" fill="#08546C"/>
<path d="M50.8963 29H55.5092V21.9261H59.3871C64.4048 21.9261 67.3239 18.9325 67.3239 14.5753C67.3239 10.2393 64.4581 7.18182 59.5043 7.18182H50.8963V29ZM55.5092 18.2294V10.9531H58.62C61.2834 10.9531 62.5724 12.402 62.5724 14.5753C62.5724 16.7379 61.2834 18.2294 58.6413 18.2294H55.5092ZM71.8622 29.277C73.2259 29.277 74.4084 28.1371 74.419 26.7202C74.4084 25.3246 73.2259 24.1847 71.8622 24.1847C70.456 24.1847 69.2947 25.3246 69.3054 26.7202C69.2947 28.1371 70.456 29.277 71.8622 29.277Z" fill="#08546C"/>
</svg>
