<svg width="51" height="38" viewBox="0 0 51 38" fill="none" xmlns="http://www.w3.org/2000/svg">
<path d="M50.1357 20.2884L38.0086 20.2177C38.2675 11.3807 40.7801 10.392 43.9302 10.124L45.1452 9.98058L45.2018 0.262059L43.8019 0.328903C39.6893 0.536252 35.1396 1.25091 32.0852 4.97686C29.4078 8.24314 28.2046 13.5978 28.1567 21.8282L28.0678 37.0792L50.0371 37.2073L50.1357 20.2884Z" fill="#A7C1CA"/>
<path d="M22.0068 37.0439L22.1054 20.125L10.1402 20.0553C10.3991 11.2183 12.8306 10.2292 15.9807 9.96115L17.1149 9.81725L17.1715 0.0987325L15.8524 0.166047C11.7398 0.373397 7.14945 1.08782 4.09511 4.81377C1.41794 8.08004 0.174349 13.4345 0.126386 21.6649L0.0375112 36.9159L22.0068 37.0439Z" fill="#A7C1CA"/>
</svg>
