<svg width="35" height="30" viewBox="0 0 35 30" fill="none" xmlns="http://www.w3.org/2000/svg">
<path d="M35 0.0168121C33.4765 1.14614 31.7897 2.0099 30.0045 2.57482C29.0464 1.41704 27.773 0.596446 26.3566 0.224004C24.9403 -0.148438 23.4492 -0.0547524 22.0851 0.492389C20.7211 1.03953 19.5498 2.01373 18.7297 3.28323C17.9097 4.55272 17.4804 6.05627 17.5 7.59051V9.26241C14.7042 9.33859 11.9338 8.68696 9.4357 7.36555C6.93755 6.04414 4.78914 4.09396 3.18182 1.68871C3.18182 1.68871 -3.18182 16.7358 11.1364 23.4234C7.85993 25.7606 3.95684 26.9326 0 26.7672C14.3182 35.1267 31.8182 26.7672 31.8182 7.54035C31.8167 7.07465 31.7741 6.6101 31.6909 6.15268C33.3146 4.4699 34.4604 2.34529 35 0.0168121Z" fill="#FFA800"/>
</svg>
